LeagueSpartan-Bold.ufo
<glyph name="quotesingle" format="2">
	<unicode hex="0027"/>
	<advance width="291"/>
	<outline>
		<contour>
			<point x="145" y="840" type="curve" smooth="yes"/>
			<point x="100" y="840"/>
			<point x="60" y="804"/>
			<point x="60" y="765" type="curve" smooth="yes"/>
			<point x="60" y="761" type="line" smooth="yes"/>
			<point x="60" y="715"/>
			<point x="102" y="475"/>
			<point x="102" y="475" type="curve"/>
			<point x="169" y="475" type="line"/>
			<point x="169" y="475"/>
			<point x="231" y="715"/>
			<point x="231" y="761" type="curve" smooth="yes"/>
			<point x="231" y="765" type="line" smooth="yes"/>
			<point x="231" y="804"/>
			<point x="191" y="840"/>
		</contour>
	</outline>
</glyph>
<glyph name="hyphen" format="2">
	<unicode hex="002D"/>
	<advance width="442"/>
	<outline>
		<contour>
			<point x="60" y="213" type="line"/>
			<point x="382" y="213" type="line"/>
			<point x="382" y="366" type="line"/>
			<point x="60" y="366" type="line"/>
		</contour>
	</outline>
</glyph>
<glyph name="slash" format="2">
	<unicode hex="002F"/>
	<advance width="611"/>
	<outline>
		<contour>
			<point x="435" y="860" type="line"/>
			<point x="23" y="-120" type="line"/>
			<point x="176" y="-120" type="line"/>
			<point x="588" y="860" type="line"/>
		</contour>
	</outline>
</glyph>
<glyph name="less" format="2">
	<unicode hex="003C"/>
	<advance width="662"/>
	<outline>
		<contour>
			<point x="60" y="357" type="line"/>
			<point x="607" y="135" type="line"/>
			<point x="607" y="277" type="line"/>
			<point x="249" y="415" type="line"/>
			<point x="607" y="555" type="line"/>
			<point x="607" y="697" type="line"/>
			<point x="60" y="475" type="line"/>
		</contour>
	</outline>
</glyph>
<glyph name="greater" format="2">
	<unicode hex="003E"/>
	<advance width="662"/>
	<outline>
		<contour>
			<point x="55" y="135" type="line"/>
			<point x="602" y="357" type="line"/>
			<point x="602" y="475" type="line"/>
			<point x="55" y="697" type="line"/>
			<point x="55" y="555" type="line"/>
			<point x="413" y="415" type="line"/>
			<point x="55" y="277" type="line"/>
		</contour>
	</outline>
</glyph>
<glyph name="H" format="1">
  <advance width="762"/>
  <unicode hex="0048"/>
  <outline>
    <contour>
      <point x="514" y="0" type="line"/>
      <point x="702" y="0" type="line"/>
      <point x="702" y="825" type="line"/>
      <point x="514" y="825" type="line"/>
      <point x="514" y="496" type="line"/>
      <point x="248" y="496" type="line"/>
      <point x="248" y="825" type="line"/>
      <point x="60" y="825" type="line"/>
      <point x="60" y="0" type="line"/>
      <point x="248" y="0" type="line"/>
      <point x="248" y="331" type="line"/>
      <point x="514" y="331" type="line"/>
    </contour>
    <contour>
      <point x="381" y="413" type="move" name="center"/>
    </contour>
    <contour>
      <point x="381" y="825" type="move" name="top"/>
    </contour>
  </outline>
</glyph>
<glyph name="I" format="2">
	<unicode hex="0049"/>
	<advance width="308"/>
	<outline>
		<contour>
			<point x="60" y="825" type="line"/>
			<point x="60" y="0" type="line"/>
			<point x="248" y="0" type="line"/>
			<point x="248" y="825" type="line"/>
		</contour>
	</outline>
</glyph>
<glyph name="underscore" format="2">
	<unicode hex="005F"/>
	<advance width="513"/>
	<outline>
		<contour>
			<point x="0" y="-100" type="line"/>
			<point x="513" y="-100" type="line"/>
			<point x="513" y="-15" type="line"/>
			<point x="0" y="-15" type="line"/>
		</contour>
	</outline>
</glyph>
<glyph name="l" format="2">
	<unicode hex="006C"/>
	<advance width="297"/>
	<outline>
		<contour>
			<point x="237" y="0" type="line"/>
			<point x="237" y="860" type="line"/>
			<point x="60" y="860" type="line"/>
			<point x="60" y="0" type="line"/>
		</contour>
	</outline>
</glyph>
<glyph name="y" format="2">
	<unicode hex="0079"/>
	<advance width="633"/>
	<outline>
		<contour>
			<point x="327" y="250" type="line"/>
			<point x="184" y="513" type="line"/>
			<point x="-20" y="513" type="line"/>
			<point x="223" y="80" type="line"/>
			<point x="46" y="-260" type="line"/>
			<point x="250" y="-260" type="line"/>
			<point x="653" y="513" type="line"/>
			<point x="449" y="513" type="line"/>
		</contour>
	</outline>
</glyph>
<glyph name="bar" format="2">
	<unicode hex="007C"/>
	<advance width="273"/>
	<outline>
		<contour>
			<point x="213" y="0" type="line"/>
			<point x="213" y="860" type="line"/>
			<point x="60" y="860" type="line"/>
			<point x="60" y="0" type="line"/>
		</contour>
	</outline>
</glyph>
<glyph name="brokenbar" format="2">
	<unicode hex="00A6"/>
	<advance width="273"/>
	<outline>
		<contour>
			<point x="213" y="528" type="line"/>
			<point x="213" y="860" type="line"/>
			<point x="60" y="860" type="line"/>
			<point x="60" y="528" type="line"/>
		</contour>
		<contour>
			<point x="213" y="0" type="line"/>
			<point x="213" y="332" type="line"/>
			<point x="60" y="332" type="line"/>
			<point x="60" y="0" type="line"/>
		</contour>
	</outline>
</glyph>
<glyph name="dieresis" format="2">
	<unicode hex="00A8"/>
	<advance width="561"/>
	<outline>
		<contour>
			<point x="162" y="791" type="curve" smooth="yes"/>
			<point x="111" y="791"/>
			<point x="70" y="750"/>
			<point x="70" y="699" type="curve" smooth="yes"/>
			<point x="70" y="648"/>
			<point x="111" y="607"/>
			<point x="162" y="607" type="curve" smooth="yes"/>
			<point x="213" y="607"/>
			<point x="254" y="648"/>
			<point x="254" y="699" type="curve" smooth="yes"/>
			<point x="254" y="750"/>
			<point x="213" y="791"/>
		</contour>
		<contour>
			<point x="399" y="791" type="curve" smooth="yes"/>
			<point x="348" y="791"/>
			<point x="307" y="750"/>
			<point x="307" y="699" type="curve" smooth="yes"/>
			<point x="307" y="648"/>
			<point x="348" y="607"/>
			<point x="399" y="607" type="curve" smooth="yes"/>
			<point x="450" y="607"/>
			<point x="491" y="648"/>
			<point x="491" y="699" type="curve" smooth="yes"/>
			<point x="491" y="750"/>
			<point x="450" y="791"/>
		</contour>
	</outline>
</glyph>
<glyph name="copyright" format="2">
	<unicode hex="00A9"/>
	<advance width="901"/>
	<outline>
		<contour>
			<point x="23" y="412" type="curve" smooth="yes"/>
			<point x="23" y="177"/>
			<point x="215" y="-15"/>
			<point x="450" y="-15" type="curve" smooth="yes"/>
			<point x="686" y="-15"/>
			<point x="878" y="177"/>
			<point x="878" y="412" type="curve" smooth="yes"/>
			<point x="878" y="648"/>
			<point x="686" y="840"/>
			<point x="450" y="840" type="curve" smooth="yes"/>
			<point x="215" y="840"/>
			<point x="23" y="648"/>
		</contour>
		<contour>
			<point x="137" y="412" type="curve" smooth="yes"/>
			<point x="137" y="585"/>
			<point x="278" y="726"/>
			<point x="450" y="726" type="curve" smooth="yes"/>
			<point x="623" y="726"/>
			<point x="764" y="585"/>
			<point x="764" y="412" type="curve" smooth="yes"/>
			<point x="764" y="240"/>
			<point x="623" y="99"/>
			<point x="450" y="99" type="curve" smooth="yes"/>
			<point x="278" y="99"/>
			<point x="137" y="240"/>
		</contour>
		<contour>
			<point x="490" y="516" type="curve" smooth="yes"/>
			<point x="436" y="516"/>
			<point x="392" y="471"/>
			<point x="392" y="415" type="curve" smooth="yes"/>
			<point x="392" y="357"/>
			<point x="436" y="313"/>
			<point x="490" y="313" type="curve" smooth="yes"/>
			<point x="528" y="313"/>
			<point x="551" y="326"/>
			<point x="556" y="329" type="curve"/>
			<point x="571" y="297"/>
			<point x="585" y="271"/>
			<point x="600" y="239" type="curve"/>
			<point x="600" y="239"/>
			<point x="546" y="206"/>
			<point x="469" y="206" type="curve" smooth="yes"/>
			<point x="356" y="206"/>
			<point x="251" y="298"/>
			<point x="251" y="413" type="curve" smooth="yes"/>
			<point x="251" y="530"/>
			<point x="356" y="624"/>
			<point x="469" y="624" type="curve" smooth="yes"/>
			<point x="554" y="624"/>
			<point x="597" y="592"/>
			<point x="600" y="589" type="curve"/>
			<point x="557" y="500" type="line"/>
			<point x="557" y="500"/>
			<point x="523" y="516"/>
		</contour>
	</outline>
</glyph>
<glyph name="guillemetleft" format="2">
	<unicode hex="00AB"/>
	<advance width="625"/>
	<outline>
		<contour>
			<point x="321" y="101" type="line"/>
			<point x="183" y="278" type="line"/>
			<point x="321" y="455" type="line"/>
			<point x="228" y="528" type="line"/>
			<point x="33" y="278" type="line"/>
			<point x="228" y="28" type="line"/>
		</contour>
		<contour>
			<point x="571" y="101" type="line"/>
			<point x="433" y="278" type="line"/>
			<point x="571" y="455" type="line"/>
			<point x="478" y="528" type="line"/>
			<point x="283" y="278" type="line"/>
			<point x="478" y="28" type="line"/>
		</contour>
	</outline>
</glyph>
<glyph name="guillemetright" format="2">
	<unicode hex="00BB"/>
	<advance width="625"/>
	<outline>
		<contour>
			<point x="397" y="28" type="line"/>
			<point x="592" y="278" type="line"/>
			<point x="397" y="528" type="line"/>
			<point x="304" y="455" type="line"/>
			<point x="442" y="278" type="line"/>
			<point x="304" y="101" type="line"/>
		</contour>
		<contour>
			<point x="54" y="455" type="line"/>
			<point x="192" y="278" type="line"/>
			<point x="54" y="101" type="line"/>
			<point x="147" y="28" type="line"/>
			<point x="342" y="278" type="line"/>
			<point x="147" y="528" type="line"/>
		</contour>
	</outline>
</glyph>
<glyph name="Udieresis" format="2">
	<unicode hex="00DC"/>
	<advance width="744"/>
	<outline>
		<contour>
			<point x="506" y="348" type="curve" smooth="yes"/>
			<point x="506" y="825" type="line"/>
			<point x="694" y="825" type="line"/>
			<point x="694" y="293" type="line" smooth="yes"/>
			<point x="694" y="89"/>
			<point x="582" y="-15"/>
			<point x="372" y="-15" type="curve" smooth="yes"/>
			<point x="162" y="-15"/>
			<point x="50" y="89"/>
			<point x="50" y="293" type="curve" smooth="yes"/>
			<point x="50" y="825" type="line"/>
			<point x="238" y="825" type="line"/>
			<point x="238" y="348" type="line" smooth="yes"/>
			<point x="238" y="210"/>
			<point x="280" y="170"/>
			<point x="372" y="170" type="curve" smooth="yes"/>
			<point x="464" y="170"/>
			<point x="506" y="210"/>
		</contour>
		<contour>
			<point x="253" y="1103" type="curve" smooth="yes"/>
			<point x="202" y="1103"/>
			<point x="161" y="1062"/>
			<point x="161" y="1011" type="curve" smooth="yes"/>
			<point x="161" y="960"/>
			<point x="202" y="919"/>
			<point x="253" y="919" type="curve" smooth="yes"/>
			<point x="304" y="919"/>
			<point x="345" y="960"/>
			<point x="345" y="1011" type="curve" smooth="yes"/>
			<point x="345" y="1062"/>
			<point x="304" y="1103"/>
		</contour>
		<contour>
			<point x="490" y="1103" type="curve" smooth="yes"/>
			<point x="439" y="1103"/>
			<point x="398" y="1062"/>
			<point x="398" y="1011" type="curve" smooth="yes"/>
			<point x="398" y="960"/>
			<point x="439" y="919"/>
			<point x="490" y="919" type="curve" smooth="yes"/>
			<point x="541" y="919"/>
			<point x="582" y="960"/>
			<point x="582" y="1011" type="curve" smooth="yes"/>
			<point x="582" y="1062"/>
			<point x="541" y="1103"/>
		</contour>
	</outline>
</glyph>
<glyph name="odieresis" format="2">
	<unicode hex="00F6"/>
	<advance width="661"/>
	<outline>
		<contour>
			<point x="23" y="256" type="curve" smooth="yes"/>
			<point x="23" y="416"/>
			<point x="159" y="528"/>
			<point x="332" y="528" type="curve" smooth="yes"/>
			<point x="502" y="528"/>
			<point x="638" y="416"/>
			<point x="638" y="256" type="curve" smooth="yes"/>
			<point x="638" y="98"/>
			<point x="509" y="-15"/>
			<point x="332" y="-15" type="curve" smooth="yes"/>
			<point x="147" y="-15"/>
			<point x="23" y="98"/>
		</contour>
		<contour>
			<point x="211" y="256" type="curve" smooth="yes"/>
			<point x="211" y="186"/>
			<point x="259" y="136"/>
			<point x="331" y="136" type="curve" smooth="yes"/>
			<point x="400" y="136"/>
			<point x="450" y="186"/>
			<point x="450" y="256" type="curve" smooth="yes"/>
			<point x="450" y="327"/>
			<point x="397" y="377"/>
			<point x="331" y="377" type="curve" smooth="yes"/>
			<point x="264" y="377"/>
			<point x="211" y="327"/>
		</contour>
		<contour>
			<point x="212" y="791" type="curve" smooth="yes"/>
			<point x="161" y="791"/>
			<point x="120" y="750"/>
			<point x="120" y="699" type="curve" smooth="yes"/>
			<point x="120" y="648"/>
			<point x="161" y="607"/>
			<point x="212" y="607" type="curve" smooth="yes"/>
			<point x="263" y="607"/>
			<point x="304" y="648"/>
			<point x="304" y="699" type="curve" smooth="yes"/>
			<point x="304" y="750"/>
			<point x="263" y="791"/>
		</contour>
		<contour>
			<point x="449" y="791" type="curve" smooth="yes"/>
			<point x="398" y="791"/>
			<point x="357" y="750"/>
			<point x="357" y="699" type="curve" smooth="yes"/>
			<point x="357" y="648"/>
			<point x="398" y="607"/>
			<point x="449" y="607" type="curve" smooth="yes"/>
			<point x="500" y="607"/>
			<point x="541" y="648"/>
			<point x="541" y="699" type="curve" smooth="yes"/>
			<point x="541" y="750"/>
			<point x="500" y="791"/>
		</contour>
	</outline>
</glyph>
<glyph name="divide" format="2">
	<unicode hex="00F7"/>
	<advance width="633"/>
	<outline>
		<contour>
			<point x="60" y="338" type="line"/>
			<point x="573" y="338" type="line"/>
			<point x="573" y="491" type="line"/>
			<point x="60" y="491" type="line"/>
		</contour>
		<contour>
			<point x="315" y="720" type="curve" smooth="yes"/>
			<point x="271" y="720"/>
			<point x="235" y="684"/>
			<point x="235" y="638" type="curve" smooth="yes"/>
			<point x="235" y="594"/>
			<point x="271" y="558"/>
			<point x="315" y="558" type="curve" smooth="yes"/>
			<point x="361" y="558"/>
			<point x="397" y="594"/>
			<point x="397" y="638" type="curve" smooth="yes"/>
			<point x="397" y="684"/>
			<point x="361" y="720"/>
		</contour>
		<contour>
			<point x="315" y="271" type="curve" smooth="yes"/>
			<point x="271" y="271"/>
			<point x="235" y="235"/>
			<point x="235" y="189" type="curve" smooth="yes"/>
			<point x="235" y="145"/>
			<point x="271" y="109"/>
			<point x="315" y="109" type="curve" smooth="yes"/>
			<point x="361" y="109"/>
			<point x="397" y="145"/>
			<point x="397" y="189" type="curve" smooth="yes"/>
			<point x="397" y="235"/>
			<point x="361" y="271"/>
		</contour>
	</outline>
</glyph>
<glyph name="ugrave" format="2">
	<unicode hex="00F9"/>
	<advance width="656"/>
	<outline>
		<contour>
			<point x="227" y="513" type="line"/>
			<point x="227" y="269" type="line" smooth="yes"/>
			<point x="227" y="168"/>
			<point x="254" y="129"/>
			<point x="328" y="129" type="curve" smooth="yes"/>
			<point x="402" y="129"/>
			<point x="429" y="168"/>
			<point x="429" y="269" type="curve" smooth="yes"/>
			<point x="429" y="513" type="line"/>
			<point x="606" y="513" type="line"/>
			<point x="606" y="226" type="line" smooth="yes"/>
			<point x="606" y="54"/>
			<point x="520" y="-15"/>
			<point x="328" y="-15" type="curve" smooth="yes"/>
			<point x="136" y="-15"/>
			<point x="50" y="54"/>
			<point x="50" y="226" type="curve" smooth="yes"/>
			<point x="50" y="513" type="line"/>
		</contour>
		<contour>
			<point x="92" y="725" type="line"/>
			<point x="330" y="587" type="line"/>
			<point x="386" y="664" type="line"/>
			<point x="183" y="840" type="line"/>
		</contour>
	</outline>
</glyph>
<glyph name="ucircumflex" format="2">
  <advance width="656"/>
  <unicode hex="00FB"/>
  <outline>
    <contour>
      <point x="227" y="513" type="line"/>
      <point x="227" y="269" type="line" smooth="yes"/>
      <point x="227" y="168"/>
      <point x="254" y="129"/>
      <point x="328" y="129" type="curve" smooth="yes"/>
      <point x="402" y="129"/>
      <point x="429" y="168"/>
      <point x="429" y="269" type="curve" smooth="yes"/>
      <point x="429" y="513" type="line"/>
      <point x="606" y="513" type="line"/>
      <point x="606" y="226" type="line" smooth="yes"/>
      <point x="606" y="54"/>
      <point x="520" y="-15"/>
      <point x="328" y="-15" type="curve" smooth="yes"/>
      <point x="136" y="-15"/>
      <point x="50" y="54"/>
      <point x="50" y="226" type="curve" smooth="yes"/>
      <point x="50" y="513" type="line"/>
    </contour>
    <contour>
      <point x="175" y="587" type="line"/>
      <point x="328" y="699" type="line"/>
      <point x="481" y="587" type="line"/>
      <point x="549" y="678" type="line"/>
      <point x="328" y="840" type="line"/>
      <point x="107" y="678" type="line"/>
    </contour>
  </outline>
</glyph>
<glyph name="ydieresis" format="2">
	<unicode hex="00FF"/>
	<advance width="633"/>
	<outline>
		<contour>
			<point x="327" y="250" type="line"/>
			<point x="184" y="513" type="line"/>
			<point x="-20" y="513" type="line"/>
			<point x="223" y="80" type="line"/>
			<point x="46" y="-260" type="line"/>
			<point x="250" y="-260" type="line"/>
			<point x="653" y="513" type="line"/>
			<point x="449" y="513" type="line"/>
		</contour>
		<contour>
			<point x="198" y="791" type="curve" smooth="yes"/>
			<point x="147" y="791"/>
			<point x="106" y="750"/>
			<point x="106" y="699" type="curve" smooth="yes"/>
			<point x="106" y="648"/>
			<point x="147" y="607"/>
			<point x="198" y="607" type="curve" smooth="yes"/>
			<point x="249" y="607"/>
			<point x="290" y="648"/>
			<point x="290" y="699" type="curve" smooth="yes"/>
			<point x="290" y="750"/>
			<point x="249" y="791"/>
		</contour>
		<contour>
			<point x="435" y="791" type="curve" smooth="yes"/>
			<point x="384" y="791"/>
			<point x="343" y="750"/>
			<point x="343" y="699" type="curve" smooth="yes"/>
			<point x="343" y="648"/>
			<point x="384" y="607"/>
			<point x="435" y="607" type="curve" smooth="yes"/>
			<point x="486" y="607"/>
			<point x="527" y="648"/>
			<point x="527" y="699" type="curve" smooth="yes"/>
			<point x="527" y="750"/>
			<point x="486" y="791"/>
		</contour>
	</outline>
</glyph>
<glyph name="dotlessi" format="1">
  <advance width="269"/>
  <unicode hex="0131"/>
  <outline>
    <contour>
      <point x="223" y="513" type="line"/>
      <point x="46" y="513" type="line"/>
      <point x="46" y="0" type="line"/>
      <point x="223" y="0" type="line"/>
    </contour>
    <contour>
      <point x="242" y="10" type="move" name="ogonek"/>
    </contour>
    <contour>
      <point x="135" y="513" type="move" name="top"/>
    </contour>
  </outline>
</glyph>
<glyph name="Uogonek" format="1">
  <advance width="744"/>
  <unicode hex="0172"/>
  <outline>
    <contour>
      <point x="506" y="349" type="line" smooth="yes"/>
      <point x="506" y="211"/>
      <point x="464" y="171"/>
      <point x="372" y="169" type="curve"/>
      <point x="280" y="171"/>
      <point x="238" y="211"/>
      <point x="238" y="349" type="curve" smooth="yes"/>
      <point x="238" y="825" type="line"/>
      <point x="50" y="825" type="line"/>
      <point x="50" y="294" type="line" smooth="yes"/>
      <point x="50" y="102"/>
      <point x="148" y="0"/>
      <point x="334" y="-13" type="curve"/>
      <point x="304" y="-51"/>
      <point x="265" y="-108"/>
      <point x="265" y="-158" type="curve" smooth="yes"/>
      <point x="265" y="-245"/>
      <point x="339" y="-275"/>
      <point x="391" y="-275" type="curve" smooth="yes"/>
      <point x="483" y="-275"/>
      <point x="528" y="-203"/>
      <point x="528" y="-203" type="curve"/>
      <point x="456" y="-149" type="line"/>
      <point x="456" y="-149"/>
      <point x="436" y="-179"/>
      <point x="405" y="-179" type="curve" smooth="yes"/>
      <point x="388" y="-179"/>
      <point x="368" y="-165"/>
      <point x="368" y="-140" type="curve" smooth="yes"/>
      <point x="368" y="-88"/>
      <point x="400" y="-36"/>
      <point x="417" y="-13" type="curve"/>
      <point x="598" y="2"/>
      <point x="694" y="105"/>
      <point x="694" y="294" type="curve" smooth="yes"/>
      <point x="694" y="825" type="line"/>
      <point x="506" y="825" type="line"/>
    </contour>
  </outline>
</glyph>
<glyph name="zcaron" format="2">
	<unicode hex="017E"/>
	<advance width="561"/>
	<outline>
		<contour>
			<point x="47" y="513" type="line"/>
			<point x="47" y="378" type="line"/>
			<point x="259" y="378" type="line"/>
			<point x="5" y="0" type="line"/>
			<point x="536" y="0" type="line"/>
			<point x="536" y="135" type="line"/>
			<point x="302" y="135" type="line"/>
			<point x="556" y="513" type="line"/>
		</contour>
		<contour>
			<point x="60" y="749" type="line"/>
			<point x="281" y="587" type="line"/>
			<point x="502" y="749" type="line"/>
			<point x="434" y="840" type="line"/>
			<point x="281" y="728" type="line"/>
			<point x="128" y="840" type="line"/>
		</contour>
	</outline>
</glyph>
<glyph name="tilde" format="2">
	<unicode hex="02DC"/>
	<advance width="602"/>
	<outline>
		<contour>
			<point x="292" y="642" type="curve" smooth="yes"/>
			<point x="292" y="642"/>
			<point x="357" y="615"/>
			<point x="396" y="615" type="curve" smooth="yes"/>
			<point x="506" y="615"/>
			<point x="532" y="787"/>
			<point x="532" y="787" type="curve" smooth="yes"/>
			<point x="431" y="787" type="line" smooth="yes"/>
			<point x="431" y="787"/>
			<point x="418" y="741"/>
			<point x="386" y="741" type="curve" smooth="yes"/>
			<point x="350" y="741"/>
			<point x="310" y="760"/>
			<point x="310" y="760" type="curve" smooth="yes"/>
			<point x="310" y="760"/>
			<point x="245" y="787"/>
			<point x="206" y="787" type="curve" smooth="yes"/>
			<point x="96" y="787"/>
			<point x="70" y="615"/>
			<point x="70" y="615" type="curve"/>
			<point x="171" y="615" type="line"/>
			<point x="171" y="615"/>
			<point x="184" y="661"/>
			<point x="216" y="661" type="curve" smooth="yes"/>
			<point x="252" y="661"/>
			<point x="292" y="642"/>
		</contour>
	</outline>
</glyph>
<glyph name="endash" format="2">
	<unicode hex="2013"/>
	<advance width="540"/>
	<outline>
		<contour>
			<point x="0" y="213" type="line"/>
			<point x="540" y="213" type="line"/>
			<point x="540" y="366" type="line"/>
			<point x="0" y="366" type="line"/>
		</contour>
	</outline>
</glyph>
<glyph name="quoteleft" format="2">
	<unicode hex="2018"/>
	<advance width="291"/>
	<outline>
		<contour>
			<point x="128" y="476" type="curve" smooth="yes"/>
			<point x="185" y="476"/>
			<point x="231" y="523"/>
			<point x="231" y="581" type="curve" smooth="yes"/>
			<point x="231" y="628"/>
			<point x="197" y="664"/>
			<point x="153" y="675" type="curve"/>
			<point x="167" y="751"/>
			<point x="222" y="803"/>
			<point x="222" y="803" type="curve"/>
			<point x="175" y="840" type="line"/>
			<point x="102" y="779"/>
			<point x="23" y="690"/>
			<point x="23" y="581" type="curve" smooth="yes"/>
			<point x="23" y="523"/>
			<point x="70" y="476"/>
		</contour>
	</outline>
</glyph>
<glyph name="guilsinglright" format="2">
	<unicode hex="203A"/>
	<advance width="375"/>
	<outline>
		<contour>
			<point x="147" y="28" type="line"/>
			<point x="342" y="278" type="line"/>
			<point x="147" y="528" type="line"/>
			<point x="54" y="455" type="line"/>
			<point x="192" y="278" type="line"/>
			<point x="54" y="101" type="line"/>
		</contour>
	</outline>
</glyph>
<glyph name="minus" format="2">
	<unicode hex="2212"/>
	<advance width="633"/>
	<outline>
		<contour>
			<point x="60" y="338" type="line"/>
			<point x="573" y="338" type="line"/>
			<point x="573" y="491" type="line"/>
			<point x="60" y="491" type="line"/>
		</contour>
	</outline>
</glyph>
